<?xml version="1.0" encoding="utf-8" standalone="no"?>
<!DOCTYPE svg PUBLIC "-//W3C//DTD SVG 1.1//EN"
  "http://www.w3.org/Graphics/SVG/1.1/DTD/svg11.dtd">
<svg xmlns:xlink="http://www.w3.org/1999/xlink" width="684.083437pt" height="351.802031pt" viewBox="0 0 684.083437 351.802031" xmlns="http://www.w3.org/2000/svg" version="1.1">
 <metadata>
  <rdf:RDF xmlns:dc="http://purl.org/dc/elements/1.1/" xmlns:cc="http://creativecommons.org/ns#" xmlns:rdf="http://www.w3.org/1999/02/22-rdf-syntax-ns#">
   <cc:Work>
    <dc:type rdf:resource="http://purl.org/dc/dcmitype/StillImage"/>
    <dc:date>2025-08-22T12:40:00.959651</dc:date>
    <dc:format>image/svg+xml</dc:format>
    <dc:creator>
     <cc:Agent>
      <dc:title>Matplotlib v3.7.5, https://matplotlib.org/</dc:title>
     </cc:Agent>
    </dc:creator>
   </cc:Work>
  </rdf:RDF>
 </metadata>
 <defs>
  <style type="text/css">*{stroke-linejoin: round; stroke-linecap: butt}</style>
 </defs>
 <g id="figure_1">
  <g id="patch_1">
   <path d="M 0 351.802031 
L 684.083437 351.802031 
L 684.083437 0 
L 0 0 
z
" style="fill: #ffffff"/>
  </g>
  <g id="axes_1">
   <g id="patch_2">
    <path d="M 60.658438 313.277969 
L 676.883438 313.277969 
L 676.883438 23.077969 
L 60.658438 23.077969 
z
" style="fill: #ffffff"/>
   </g>
   <g id="patch_3">
    <path d="M 88.668665 313.277969 
L 94.27071 313.277969 
L 94.27071 36.897016 
L 88.668665 36.897016 
z
" clip-path="url(#p6294f2d268)" style="fill: #1f77b4; stroke: #ffffff; stroke-linejoin: miter"/>
   </g>
   <g id="patch_4">
    <path d="M 94.27071 313.277969 
L 99.872756 313.277969 
L 99.872756 313.277969 
L 94.27071 313.277969 
z
" clip-path="url(#p6294f2d268)" style="fill: #1f77b4; stroke: #ffffff; stroke-linejoin: miter"/>
   </g>
   <g id="patch_5">
    <path d="M 99.872756 313.277969 
L 105.474801 313.277969 
L 105.474801 313.277969 
L 99.872756 313.277969 
z
" clip-path="url(#p6294f2d268)" style="fill: #1f77b4; stroke: #ffffff; stroke-linejoin: miter"/>
   </g>
   <g id="patch_6">
    <path d="M 105.474801 313.277969 
L 111.076847 313.277969 
L 111.076847 199.976048 
L 105.474801 199.976048 
z
" clip-path="url(#p6294f2d268)" style="fill: #1f77b4; stroke: #ffffff; stroke-linejoin: miter"/>
   </g>
   <g id="patch_7">
    <path d="M 111.076847 313.277969 
L 116.678892 313.277969 
L 116.678892 313.277969 
L 111.076847 313.277969 
z
" clip-path="url(#p6294f2d268)" style="fill: #1f77b4; stroke: #ffffff; stroke-linejoin: miter"/>
   </g>
   <g id="patch_8">
    <path d="M 116.678892 313.277969 
L 122.280938 313.277969 
L 122.280938 313.277969 
L 116.678892 313.277969 
z
" clip-path="url(#p6294f2d268)" style="fill: #1f77b4; stroke: #ffffff; stroke-linejoin: miter"/>
   </g>
   <g id="patch_9">
    <path d="M 122.280938 313.277969 
L 127.882983 313.277969 
L 127.882983 252.221011 
L 122.280938 252.221011 
z
" clip-path="url(#p6294f2d268)" style="fill: #1f77b4; stroke: #ffffff; stroke-linejoin: miter"/>
   </g>
   <g id="patch_10">
    <path d="M 127.882983 313.277969 
L 133.485028 313.277969 
L 133.485028 313.277969 
L 127.882983 313.277969 
z
" clip-path="url(#p6294f2d268)" style="fill: #1f77b4; stroke: #ffffff; stroke-linejoin: miter"/>
   </g>
   <g id="patch_11">
    <path d="M 133.485028 313.277969 
L 139.087074 313.277969 
L 139.087074 313.277969 
L 133.485028 313.277969 
z
" clip-path="url(#p6294f2d268)" style="fill: #1f77b4; stroke: #ffffff; stroke-linejoin: miter"/>
   </g>
   <g id="patch_12">
    <path d="M 139.087074 313.277969 
L 144.689119 313.277969 
L 144.689119 313.277969 
L 139.087074 313.277969 
z
" clip-path="url(#p6294f2d268)" style="fill: #1f77b4; stroke: #ffffff; stroke-linejoin: miter"/>
   </g>
   <g id="patch_13">
    <path d="M 144.689119 313.277969 
L 150.291165 313.277969 
L 150.291165 280.933348 
L 144.689119 280.933348 
z
" clip-path="url(#p6294f2d268)" style="fill: #1f77b4; stroke: #ffffff; stroke-linejoin: miter"/>
   </g>
   <g id="patch_14">
    <path d="M 150.291165 313.277969 
L 155.89321 313.277969 
L 155.89321 313.277969 
L 150.291165 313.277969 
z
" clip-path="url(#p6294f2d268)" style="fill: #1f77b4; stroke: #ffffff; stroke-linejoin: miter"/>
   </g>
   <g id="patch_15">
    <path d="M 155.89321 313.277969 
L 161.495256 313.277969 
L 161.495256 313.277969 
L 155.89321 313.277969 
z
" clip-path="url(#p6294f2d268)" style="fill: #1f77b4; stroke: #ffffff; stroke-linejoin: miter"/>
   </g>
   <g id="patch_16">
    <path d="M 161.495256 313.277969 
L 167.097301 313.277969 
L 167.097301 296.663978 
L 161.495256 296.663978 
z
" clip-path="url(#p6294f2d268)" style="fill: #1f77b4; stroke: #ffffff; stroke-linejoin: miter"/>
   </g>
   <g id="patch_17">
    <path d="M 167.097301 313.277969 
L 172.699347 313.277969 
L 172.699347 313.277969 
L 167.097301 313.277969 
z
" clip-path="url(#p6294f2d268)" style="fill: #1f77b4; stroke: #ffffff; stroke-linejoin: miter"/>
   </g>
   <g id="patch_18">
    <path d="M 172.699347 313.277969 
L 178.301392 313.277969 
L 178.301392 313.277969 
L 172.699347 313.277969 
z
" clip-path="url(#p6294f2d268)" style="fill: #1f77b4; stroke: #ffffff; stroke-linejoin: miter"/>
   </g>
   <g id="patch_19">
    <path d="M 178.301392 313.277969 
L 183.903438 313.277969 
L 183.903438 313.277969 
L 178.301392 313.277969 
z
" clip-path="url(#p6294f2d268)" style="fill: #1f77b4; stroke: #ffffff; stroke-linejoin: miter"/>
   </g>
   <g id="patch_20">
    <path d="M 183.903437 313.277969 
L 189.505483 313.277969 
L 189.505483 303.35714 
L 183.903437 303.35714 
z
" clip-path="url(#p6294f2d268)" style="fill: #1f77b4; stroke: #ffffff; stroke-linejoin: miter"/>
   </g>
   <g id="patch_21">
    <path d="M 189.505483 313.277969 
L 195.107528 313.277969 
L 195.107528 313.277969 
L 189.505483 313.277969 
z
" clip-path="url(#p6294f2d268)" style="fill: #1f77b4; stroke: #ffffff; stroke-linejoin: miter"/>
   </g>
   <g id="patch_22">
    <path d="M 195.107528 313.277969 
L 200.709574 313.277969 
L 200.709574 313.277969 
L 195.107528 313.277969 
z
" clip-path="url(#p6294f2d268)" style="fill: #1f77b4; stroke: #ffffff; stroke-linejoin: miter"/>
   </g>
   <g id="patch_23">
    <path d="M 200.709574 313.277969 
L 206.311619 313.277969 
L 206.311619 304.57099 
L 200.709574 304.57099 
z
" clip-path="url(#p6294f2d268)" style="fill: #1f77b4; stroke: #ffffff; stroke-linejoin: miter"/>
   </g>
   <g id="patch_24">
    <path d="M 206.311619 313.277969 
L 211.913665 313.277969 
L 211.913665 313.277969 
L 206.311619 313.277969 
z
" clip-path="url(#p6294f2d268)" style="fill: #1f77b4; stroke: #ffffff; stroke-linejoin: miter"/>
   </g>
   <g id="patch_25">
    <path d="M 211.913665 313.277969 
L 217.51571 313.277969 
L 217.51571 313.277969 
L 211.913665 313.277969 
z
" clip-path="url(#p6294f2d268)" style="fill: #1f77b4; stroke: #ffffff; stroke-linejoin: miter"/>
   </g>
   <g id="patch_26">
    <path d="M 217.51571 313.277969 
L 223.117756 313.277969 
L 223.117756 313.277969 
L 217.51571 313.277969 
z
" clip-path="url(#p6294f2d268)" style="fill: #1f77b4; stroke: #ffffff; stroke-linejoin: miter"/>
   </g>
   <g id="patch_27">
    <path d="M 223.117756 313.277969 
L 228.719801 313.277969 
L 228.719801 310.041036 
L 223.117756 310.041036 
z
" clip-path="url(#p6294f2d268)" style="fill: #1f77b4; stroke: #ffffff; stroke-linejoin: miter"/>
   </g>
   <g id="patch_28">
    <path d="M 228.719801 313.277969 
L 234.321847 313.277969 
L 234.321847 313.277969 
L 228.719801 313.277969 
z
" clip-path="url(#p6294f2d268)" style="fill: #1f77b4; stroke: #ffffff; stroke-linejoin: miter"/>
   </g>
   <g id="patch_29">
    <path d="M 234.321847 313.277969 
L 239.923892 313.277969 
L 239.923892 313.277969 
L 234.321847 313.277969 
z
" clip-path="url(#p6294f2d268)" style="fill: #1f77b4; stroke: #ffffff; stroke-linejoin: miter"/>
   </g>
   <g id="patch_30">
    <path d="M 239.923892 313.277969 
L 245.525938 313.277969 
L 245.525938 311.168403 
L 239.923892 311.168403 
z
" clip-path="url(#p6294f2d268)" style="fill: #1f77b4; stroke: #ffffff; stroke-linejoin: miter"/>
   </g>
   <g id="patch_31">
    <path d="M 245.525938 313.277969 
L 251.127983 313.277969 
L 251.127983 313.277969 
L 245.525938 313.277969 
z
" clip-path="url(#p6294f2d268)" style="fill: #1f77b4; stroke: #ffffff; stroke-linejoin: miter"/>
   </g>
   <g id="patch_32">
    <path d="M 251.127983 313.277969 
L 256.730028 313.277969 
L 256.730028 313.277969 
L 251.127983 313.277969 
z
" clip-path="url(#p6294f2d268)" style="fill: #1f77b4; stroke: #ffffff; stroke-linejoin: miter"/>
   </g>
   <g id="patch_33">
    <path d="M 256.730028 313.277969 
L 262.332074 313.277969 
L 262.332074 313.277969 
L 256.730028 313.277969 
z
" clip-path="url(#p6294f2d268)" style="fill: #1f77b4; stroke: #ffffff; stroke-linejoin: miter"/>
   </g>
   <g id="patch_34">
    <path d="M 262.332074 313.277969 
L 267.934119 313.277969 
L 267.934119 311.461827 
L 262.332074 311.461827 
z
" clip-path="url(#p6294f2d268)" style="fill: #1f77b4; stroke: #ffffff; stroke-linejoin: miter"/>
   </g>
   <g id="patch_35">
    <path d="M 267.934119 313.277969 
L 273.536165 313.277969 
L 273.536165 313.277969 
L 267.934119 313.277969 
z
" clip-path="url(#p6294f2d268)" style="fill: #1f77b4; stroke: #ffffff; stroke-linejoin: miter"/>
   </g>
   <g id="patch_36">
    <path d="M 273.536165 313.277969 
L 279.13821 313.277969 
L 279.13821 313.277969 
L 273.536165 313.277969 
z
" clip-path="url(#p6294f2d268)" style="fill: #1f77b4; stroke: #ffffff; stroke-linejoin: miter"/>
   </g>
   <g id="patch_37">
    <path d="M 279.13821 313.277969 
L 284.740256 313.277969 
L 284.740256 312.203109 
L 279.13821 312.203109 
z
" clip-path="url(#p6294f2d268)" style="fill: #1f77b4; stroke: #ffffff; stroke-linejoin: miter"/>
   </g>
   <g id="patch_38">
    <path d="M 284.740256 313.277969 
L 290.342301 313.277969 
L 290.342301 313.277969 
L 284.740256 313.277969 
z
" clip-path="url(#p6294f2d268)" style="fill: #1f77b4; stroke: #ffffff; stroke-linejoin: miter"/>
   </g>
   <g id="patch_39">
    <path d="M 290.342301 313.277969 
L 295.944347 313.277969 
L 295.944347 313.277969 
L 290.342301 313.277969 
z
" clip-path="url(#p6294f2d268)" style="fill: #1f77b4; stroke: #ffffff; stroke-linejoin: miter"/>
   </g>
   <g id="patch_40">
    <path d="M 295.944347 313.277969 
L 301.546392 313.277969 
L 301.546392 312.521243 
L 295.944347 312.521243 
z
" clip-path="url(#p6294f2d268)" style="fill: #1f77b4; stroke: #ffffff; stroke-linejoin: miter"/>
   </g>
   <g id="patch_41">
    <path d="M 301.546392 313.277969 
L 307.148438 313.277969 
L 307.148438 313.277969 
L 301.546392 313.277969 
z
" clip-path="url(#p6294f2d268)" style="fill: #1f77b4; stroke: #ffffff; stroke-linejoin: miter"/>
   </g>
   <g id="patch_42">
    <path d="M 307.148438 313.277969 
L 312.750483 313.277969 
L 312.750483 313.277969 
L 307.148438 313.277969 
z
" clip-path="url(#p6294f2d268)" style="fill: #1f77b4; stroke: #ffffff; stroke-linejoin: miter"/>
   </g>
   <g id="patch_43">
    <path d="M 312.750483 313.277969 
L 318.352528 313.277969 
L 318.352528 313.277969 
L 312.750483 313.277969 
z
" clip-path="url(#p6294f2d268)" style="fill: #1f77b4; stroke: #ffffff; stroke-linejoin: miter"/>
   </g>
   <g id="patch_44">
    <path d="M 318.352528 313.277969 
L 323.954574 313.277969 
L 323.954574 312.564484 
L 318.352528 312.564484 
z
" clip-path="url(#p6294f2d268)" style="fill: #1f77b4; stroke: #ffffff; stroke-linejoin: miter"/>
   </g>
   <g id="patch_45">
    <path d="M 323.954574 313.277969 
L 329.556619 313.277969 
L 329.556619 313.277969 
L 323.954574 313.277969 
z
" clip-path="url(#p6294f2d268)" style="fill: #1f77b4; stroke: #ffffff; stroke-linejoin: miter"/>
   </g>
   <g id="patch_46">
    <path d="M 329.556619 313.277969 
L 335.158665 313.277969 
L 335.158665 313.277969 
L 329.556619 313.277969 
z
" clip-path="url(#p6294f2d268)" style="fill: #1f77b4; stroke: #ffffff; stroke-linejoin: miter"/>
   </g>
   <g id="patch_47">
    <path d="M 335.158665 313.277969 
L 340.76071 313.277969 
L 340.76071 312.55213 
L 335.158665 312.55213 
z
" clip-path="url(#p6294f2d268)" style="fill: #1f77b4; stroke: #ffffff; stroke-linejoin: miter"/>
   </g>
   <g id="patch_48">
    <path d="M 340.76071 313.277969 
L 346.362756 313.277969 
L 346.362756 313.277969 
L 340.76071 313.277969 
z
" clip-path="url(#p6294f2d268)" style="fill: #1f77b4; stroke: #ffffff; stroke-linejoin: miter"/>
   </g>
   <g id="patch_49">
    <path d="M 346.362756 313.277969 
L 351.964801 313.277969 
L 351.964801 313.277969 
L 346.362756 313.277969 
z
" clip-path="url(#p6294f2d268)" style="fill: #1f77b4; stroke: #ffffff; stroke-linejoin: miter"/>
   </g>
   <g id="patch_50">
    <path d="M 351.964801 313.277969 
L 357.566847 313.277969 
L 357.566847 313.277969 
L 351.964801 313.277969 
z
" clip-path="url(#p6294f2d268)" style="fill: #1f77b4; stroke: #ffffff; stroke-linejoin: miter"/>
   </g>
   <g id="patch_51">
    <path d="M 357.566847 313.277969 
L 363.168892 313.277969 
L 363.168892 313.006165 
L 357.566847 313.006165 
z
" clip-path="url(#p6294f2d268)" style="fill: #1f77b4; stroke: #ffffff; stroke-linejoin: miter"/>
   </g>
   <g id="patch_52">
    <path d="M 363.168892 313.277969 
L 368.770938 313.277969 
L 368.770938 313.277969 
L 363.168892 313.277969 
z
" clip-path="url(#p6294f2d268)" style="fill: #1f77b4; stroke: #ffffff; stroke-linejoin: miter"/>
   </g>
   <g id="patch_53">
    <path d="M 368.770938 313.277969 
L 374.372983 313.277969 
L 374.372983 313.277969 
L 368.770938 313.277969 
z
" clip-path="url(#p6294f2d268)" style="fill: #1f77b4; stroke: #ffffff; stroke-linejoin: miter"/>
   </g>
   <g id="patch_54">
    <path d="M 374.372983 313.277969 
L 379.975028 313.277969 
L 379.975028 313.092648 
L 374.372983 313.092648 
z
" clip-path="url(#p6294f2d268)" style="fill: #1f77b4; stroke: #ffffff; stroke-linejoin: miter"/>
   </g>
   <g id="patch_55">
    <path d="M 379.975028 313.277969 
L 385.577074 313.277969 
L 385.577074 313.277969 
L 379.975028 313.277969 
z
" clip-path="url(#p6294f2d268)" style="fill: #1f77b4; stroke: #ffffff; stroke-linejoin: miter"/>
   </g>
   <g id="patch_56">
    <path d="M 385.577074 313.277969 
L 391.179119 313.277969 
L 391.179119 313.277969 
L 385.577074 313.277969 
z
" clip-path="url(#p6294f2d268)" style="fill: #1f77b4; stroke: #ffffff; stroke-linejoin: miter"/>
   </g>
   <g id="patch_57">
    <path d="M 391.179119 313.277969 
L 396.781165 313.277969 
L 396.781165 313.277969 
L 391.179119 313.277969 
z
" clip-path="url(#p6294f2d268)" style="fill: #1f77b4; stroke: #ffffff; stroke-linejoin: miter"/>
   </g>
   <g id="patch_58">
    <path d="M 396.781165 313.277969 
L 402.38321 313.277969 
L 402.38321 313.169865 
L 396.781165 313.169865 
z
" clip-path="url(#p6294f2d268)" style="fill: #1f77b4; stroke: #ffffff; stroke-linejoin: miter"/>
   </g>
   <g id="patch_59">
    <path d="M 402.38321 313.277969 
L 407.985256 313.277969 
L 407.985256 313.277969 
L 402.38321 313.277969 
z
" clip-path="url(#p6294f2d268)" style="fill: #1f77b4; stroke: #ffffff; stroke-linejoin: miter"/>
   </g>
   <g id="patch_60">
    <path d="M 407.985256 313.277969 
L 413.587301 313.277969 
L 413.587301 313.277969 
L 407.985256 313.277969 
z
" clip-path="url(#p6294f2d268)" style="fill: #1f77b4; stroke: #ffffff; stroke-linejoin: miter"/>
   </g>
   <g id="patch_61">
    <path d="M 413.587301 313.277969 
L 419.189347 313.277969 
L 419.189347 313.203841 
L 413.587301 313.203841 
z
" clip-path="url(#p6294f2d268)" style="fill: #1f77b4; stroke: #ffffff; stroke-linejoin: miter"/>
   </g>
   <g id="patch_62">
    <path d="M 419.189347 313.277969 
L 424.791392 313.277969 
L 424.791392 313.277969 
L 419.189347 313.277969 
z
" clip-path="url(#p6294f2d268)" style="fill: #1f77b4; stroke: #ffffff; stroke-linejoin: miter"/>
   </g>
   <g id="patch_63">
    <path d="M 424.791392 313.277969 
L 430.393438 313.277969 
L 430.393438 313.277969 
L 424.791392 313.277969 
z
" clip-path="url(#p6294f2d268)" style="fill: #1f77b4; stroke: #ffffff; stroke-linejoin: miter"/>
   </g>
   <g id="patch_64">
    <path d="M 430.393438 313.277969 
L 435.995483 313.277969 
L 435.995483 313.277969 
L 430.393438 313.277969 
z
" clip-path="url(#p6294f2d268)" style="fill: #1f77b4; stroke: #ffffff; stroke-linejoin: miter"/>
   </g>
   <g id="patch_65">
    <path d="M 435.995483 313.277969 
L 441.597528 313.277969 
L 441.597528 313.219284 
L 435.995483 313.219284 
z
" clip-path="url(#p6294f2d268)" style="fill: #1f77b4; stroke: #ffffff; stroke-linejoin: miter"/>
   </g>
   <g id="patch_66">
    <path d="M 441.597528 313.277969 
L 447.199574 313.277969 
L 447.199574 313.277969 
L 441.597528 313.277969 
z
" clip-path="url(#p6294f2d268)" style="fill: #1f77b4; stroke: #ffffff; stroke-linejoin: miter"/>
   </g>
   <g id="patch_67">
    <path d="M 447.199574 313.277969 
L 452.801619 313.277969 
L 452.801619 313.277969 
L 447.199574 313.277969 
z
" clip-path="url(#p6294f2d268)" style="fill: #1f77b4; stroke: #ffffff; stroke-linejoin: miter"/>
   </g>
   <g id="patch_68">
    <path d="M 452.801619 313.277969 
L 458.403665 313.277969 
L 458.403665 313.145156 
L 452.801619 313.145156 
z
" clip-path="url(#p6294f2d268)" style="fill: #1f77b4; stroke: #ffffff; stroke-linejoin: miter"/>
   </g>
   <g id="patch_69">
    <path d="M 458.403665 313.277969 
L 464.00571 313.277969 
L 464.00571 313.277969 
L 458.403665 313.277969 
z
" clip-path="url(#p6294f2d268)" style="fill: #1f77b4; stroke: #ffffff; stroke-linejoin: miter"/>
   </g>
   <g id="patch_70">
    <path d="M 464.00571 313.277969 
L 469.607756 313.277969 
L 469.607756 313.277969 
L 464.00571 313.277969 
z
" clip-path="url(#p6294f2d268)" style="fill: #1f77b4; stroke: #ffffff; stroke-linejoin: miter"/>
   </g>
   <g id="patch_71">
    <path d="M 469.607756 313.277969 
L 475.209801 313.277969 
L 475.209801 313.216195 
L 469.607756 313.216195 
z
" clip-path="url(#p6294f2d268)" style="fill: #1f77b4; stroke: #ffffff; stroke-linejoin: miter"/>
   </g>
   <g id="patch_72">
    <path d="M 475.209801 313.277969 
L 480.811847 313.277969 
L 480.811847 313.277969 
L 475.209801 313.277969 
z
" clip-path="url(#p6294f2d268)" style="fill: #1f77b4; stroke: #ffffff; stroke-linejoin: miter"/>
   </g>
   <g id="patch_73">
    <path d="M 480.811847 313.277969 
L 486.413892 313.277969 
L 486.413892 313.277969 
L 480.811847 313.277969 
z
" clip-path="url(#p6294f2d268)" style="fill: #1f77b4; stroke: #ffffff; stroke-linejoin: miter"/>
   </g>
   <g id="patch_74">
    <path d="M 486.413892 313.277969 
L 492.015938 313.277969 
L 492.015938 313.277969 
L 486.413892 313.277969 
z
" clip-path="url(#p6294f2d268)" style="fill: #1f77b4; stroke: #ffffff; stroke-linejoin: miter"/>
   </g>
   <g id="patch_75">
    <path d="M 492.015938 313.277969 
L 497.617983 313.277969 
L 497.617983 313.253259 
L 492.015938 313.253259 
z
" clip-path="url(#p6294f2d268)" style="fill: #1f77b4; stroke: #ffffff; stroke-linejoin: miter"/>
   </g>
   <g id="patch_76">
    <path d="M 497.617983 313.277969 
L 503.220028 313.277969 
L 503.220028 313.277969 
L 497.617983 313.277969 
z
" clip-path="url(#p6294f2d268)" style="fill: #1f77b4; stroke: #ffffff; stroke-linejoin: miter"/>
   </g>
   <g id="patch_77">
    <path d="M 503.220028 313.277969 
L 508.822074 313.277969 
L 508.822074 313.277969 
L 503.220028 313.277969 
z
" clip-path="url(#p6294f2d268)" style="fill: #1f77b4; stroke: #ffffff; stroke-linejoin: miter"/>
   </g>
   <g id="patch_78">
    <path d="M 508.822074 313.277969 
L 514.424119 313.277969 
L 514.424119 313.259437 
L 508.822074 313.259437 
z
" clip-path="url(#p6294f2d268)" style="fill: #1f77b4; stroke: #ffffff; stroke-linejoin: miter"/>
   </g>
   <g id="patch_79">
    <path d="M 514.424119 313.277969 
L 520.026165 313.277969 
L 520.026165 313.277969 
L 514.424119 313.277969 
z
" clip-path="url(#p6294f2d268)" style="fill: #1f77b4; stroke: #ffffff; stroke-linejoin: miter"/>
   </g>
   <g id="patch_80">
    <path d="M 520.026165 313.277969 
L 525.62821 313.277969 
L 525.62821 313.277969 
L 520.026165 313.277969 
z
" clip-path="url(#p6294f2d268)" style="fill: #1f77b4; stroke: #ffffff; stroke-linejoin: miter"/>
   </g>
   <g id="patch_81">
    <path d="M 525.62821 313.277969 
L 531.230256 313.277969 
L 531.230256 313.277969 
L 525.62821 313.277969 
z
" clip-path="url(#p6294f2d268)" style="fill: #1f77b4; stroke: #ffffff; stroke-linejoin: miter"/>
   </g>
   <g id="patch_82">
    <path d="M 531.230256 313.277969 
L 536.832301 313.277969 
L 536.832301 313.243993 
L 531.230256 313.243993 
z
" clip-path="url(#p6294f2d268)" style="fill: #1f77b4; stroke: #ffffff; stroke-linejoin: miter"/>
   </g>
   <g id="patch_83">
    <path d="M 536.832301 313.277969 
L 542.434347 313.277969 
L 542.434347 313.277969 
L 536.832301 313.277969 
z
" clip-path="url(#p6294f2d268)" style="fill: #1f77b4; stroke: #ffffff; stroke-linejoin: miter"/>
   </g>
   <g id="patch_84">
    <path d="M 542.434347 313.277969 
L 548.036392 313.277969 
L 548.036392 313.277969 
L 542.434347 313.277969 
z
" clip-path="url(#p6294f2d268)" style="fill: #1f77b4; stroke: #ffffff; stroke-linejoin: miter"/>
   </g>
   <g id="patch_85">
    <path d="M 548.036392 313.277969 
L 553.638438 313.277969 
L 553.638438 313.271791 
L 548.036392 313.271791 
z
" clip-path="url(#p6294f2d268)" style="fill: #1f77b4; stroke: #ffffff; stroke-linejoin: miter"/>
   </g>
   <g id="patch_86">
    <path d="M 553.638438 313.277969 
L 559.240483 313.277969 
L 559.240483 313.277969 
L 553.638438 313.277969 
z
" clip-path="url(#p6294f2d268)" style="fill: #1f77b4; stroke: #ffffff; stroke-linejoin: miter"/>
   </g>
   <g id="patch_87">
    <path d="M 559.240483 313.277969 
L 564.842528 313.277969 
L 564.842528 313.277969 
L 559.240483 313.277969 
z
" clip-path="url(#p6294f2d268)" style="fill: #1f77b4; stroke: #ffffff; stroke-linejoin: miter"/>
   </g>
   <g id="patch_88">
    <path d="M 564.842528 313.277969 
L 570.444574 313.277969 
L 570.444574 313.277969 
L 564.842528 313.277969 
z
" clip-path="url(#p6294f2d268)" style="fill: #1f77b4; stroke: #ffffff; stroke-linejoin: miter"/>
   </g>
   <g id="patch_89">
    <path d="M 570.444574 313.277969 
L 576.046619 313.277969 
L 576.046619 313.268703 
L 570.444574 313.268703 
z
" clip-path="url(#p6294f2d268)" style="fill: #1f77b4; stroke: #ffffff; stroke-linejoin: miter"/>
   </g>
   <g id="patch_90">
    <path d="M 576.046619 313.277969 
L 581.648665 313.277969 
L 581.648665 313.277969 
L 576.046619 313.277969 
z
" clip-path="url(#p6294f2d268)" style="fill: #1f77b4; stroke: #ffffff; stroke-linejoin: miter"/>
   </g>
   <g id="patch_91">
    <path d="M 581.648665 313.277969 
L 587.25071 313.277969 
L 587.25071 313.277969 
L 581.648665 313.277969 
z
" clip-path="url(#p6294f2d268)" style="fill: #1f77b4; stroke: #ffffff; stroke-linejoin: miter"/>
   </g>
   <g id="patch_92">
    <path d="M 587.25071 313.277969 
L 592.852756 313.277969 
L 592.852756 313.262525 
L 587.25071 313.262525 
z
" clip-path="url(#p6294f2d268)" style="fill: #1f77b4; stroke: #ffffff; stroke-linejoin: miter"/>
   </g>
   <g id="patch_93">
    <path d="M 592.852756 313.277969 
L 598.454801 313.277969 
L 598.454801 313.277969 
L 592.852756 313.277969 
z
" clip-path="url(#p6294f2d268)" style="fill: #1f77b4; stroke: #ffffff; stroke-linejoin: miter"/>
   </g>
   <g id="patch_94">
    <path d="M 598.454801 313.277969 
L 604.056847 313.277969 
L 604.056847 313.277969 
L 598.454801 313.277969 
z
" clip-path="url(#p6294f2d268)" style="fill: #1f77b4; stroke: #ffffff; stroke-linejoin: miter"/>
   </g>
   <g id="patch_95">
    <path d="M 604.056847 313.277969 
L 609.658892 313.277969 
L 609.658892 313.277969 
L 604.056847 313.277969 
z
" clip-path="url(#p6294f2d268)" style="fill: #1f77b4; stroke: #ffffff; stroke-linejoin: miter"/>
   </g>
   <g id="patch_96">
    <path d="M 609.658892 313.277969 
L 615.260938 313.277969 
L 615.260938 313.247082 
L 609.658892 313.247082 
z
" clip-path="url(#p6294f2d268)" style="fill: #1f77b4; stroke: #ffffff; stroke-linejoin: miter"/>
   </g>
   <g id="patch_97">
    <path d="M 615.260937 313.277969 
L 620.862983 313.277969 
L 620.862983 313.277969 
L 615.260937 313.277969 
z
" clip-path="url(#p6294f2d268)" style="fill: #1f77b4; stroke: #ffffff; stroke-linejoin: miter"/>
   </g>
   <g id="patch_98">
    <path d="M 620.862983 313.277969 
L 626.465028 313.277969 
L 626.465028 313.277969 
L 620.862983 313.277969 
z
" clip-path="url(#p6294f2d268)" style="fill: #1f77b4; stroke: #ffffff; stroke-linejoin: miter"/>
   </g>
   <g id="patch_99">
    <path d="M 626.465028 313.277969 
L 632.067074 313.277969 
L 632.067074 313.27488 
L 626.465028 313.27488 
z
" clip-path="url(#p6294f2d268)" style="fill: #1f77b4; stroke: #ffffff; stroke-linejoin: miter"/>
   </g>
   <g id="patch_100">
    <path d="M 632.067074 313.277969 
L 637.669119 313.277969 
L 637.669119 313.277969 
L 632.067074 313.277969 
z
" clip-path="url(#p6294f2d268)" style="fill: #1f77b4; stroke: #ffffff; stroke-linejoin: miter"/>
   </g>
   <g id="patch_101">
    <path d="M 637.669119 313.277969 
L 643.271165 313.277969 
L 643.271165 313.277969 
L 637.669119 313.277969 
z
" clip-path="url(#p6294f2d268)" style="fill: #1f77b4; stroke: #ffffff; stroke-linejoin: miter"/>
   </g>
   <g id="patch_102">
    <path d="M 643.271165 313.277969 
L 648.87321 313.277969 
L 648.87321 313.216195 
L 643.271165 313.216195 
z
" clip-path="url(#p6294f2d268)" style="fill: #1f77b4; stroke: #ffffff; stroke-linejoin: miter"/>
   </g>
   <g id="matplotlib.axis_1">
    <g id="xtick_1">
     <g id="line2d_1">
      <path d="M 69.351267 313.277969 
L 69.351267 23.077969 
" clip-path="url(#p6294f2d268)" style="fill: none; stroke: #b0b0b0; stroke-opacity: 0.25; stroke-width: 0.8; stroke-linecap: square"/>
     </g>
     <g id="line2d_2">
      <defs>
       <path id="mb8a1b89b30" d="M 0 0 
L 0 3.5 
" style="stroke: #000000; stroke-width: 0.8"/>
      </defs>
      <g>
       <use xlink:href="#mb8a1b89b30" x="69.351267" y="313.277969" style="stroke: #000000; stroke-width: 0.8"/>
      </g>
     </g>
     <g id="text_1">
      <!-- 0 -->
      <g transform="translate(66.170017 327.876406) scale(0.1 -0.1)">
       <defs>
        <path id="DejaVuSans-30" d="M 2034 4250 
Q 1547 4250 1301 3770 
Q 1056 3291 1056 2328 
Q 1056 1369 1301 889 
Q 1547 409 2034 409 
Q 2525 409 2770 889 
Q 3016 1369 3016 2328 
Q 3016 3291 2770 3770 
Q 2525 4250 2034 4250 
z
M 2034 4750 
Q 2819 4750 3233 4129 
Q 3647 3509 3647 2328 
Q 3647 1150 3233 529 
Q 2819 -91 2034 -91 
Q 1250 -91 836 529 
Q 422 1150 422 2328 
Q 422 3509 836 4129 
Q 1250 4750 2034 4750 
z
" transform="scale(0.015625)"/>
       </defs>
       <use xlink:href="#DejaVuSans-30"/>
      </g>
     </g>
    </g>
    <g id="xtick_2">
     <g id="line2d_3">
      <path d="M 165.938257 313.277969 
L 165.938257 23.077969 
" clip-path="url(#p6294f2d268)" style="fill: none; stroke: #b0b0b0; stroke-opacity: 0.25; stroke-width: 0.8; stroke-linecap: square"/>
     </g>
     <g id="line2d_4">
      <g>
       <use xlink:href="#mb8a1b89b30" x="165.938257" y="313.277969" style="stroke: #000000; stroke-width: 0.8"/>
      </g>
     </g>
     <g id="text_2">
      <!-- 5 -->
      <g transform="translate(162.757007 327.876406) scale(0.1 -0.1)">
       <defs>
        <path id="DejaVuSans-35" d="M 691 4666 
L 3169 4666 
L 3169 4134 
L 1269 4134 
L 1269 2991 
Q 1406 3038 1543 3061 
Q 1681 3084 1819 3084 
Q 2600 3084 3056 2656 
Q 3513 2228 3513 1497 
Q 3513 744 3044 326 
Q 2575 -91 1722 -91 
Q 1428 -91 1123 -41 
Q 819 9 494 109 
L 494 744 
Q 775 591 1075 516 
Q 1375 441 1709 441 
Q 2250 441 2565 725 
Q 2881 1009 2881 1497 
Q 2881 1984 2565 2268 
Q 2250 2553 1709 2553 
Q 1456 2553 1204 2497 
Q 953 2441 691 2322 
L 691 4666 
z
" transform="scale(0.015625)"/>
       </defs>
       <use xlink:href="#DejaVuSans-35"/>
      </g>
     </g>
    </g>
    <g id="xtick_3">
     <g id="line2d_5">
      <path d="M 262.525248 313.277969 
L 262.525248 23.077969 
" clip-path="url(#p6294f2d268)" style="fill: none; stroke: #b0b0b0; stroke-opacity: 0.25; stroke-width: 0.8; stroke-linecap: square"/>
     </g>
     <g id="line2d_6">
      <g>
       <use xlink:href="#mb8a1b89b30" x="262.525248" y="313.277969" style="stroke: #000000; stroke-width: 0.8"/>
      </g>
     </g>
     <g id="text_3">
      <!-- 10 -->
      <g transform="translate(256.162748 327.876406) scale(0.1 -0.1)">
       <defs>
        <path id="DejaVuSans-31" d="M 794 531 
L 1825 531 
L 1825 4091 
L 703 3866 
L 703 4441 
L 1819 4666 
L 2450 4666 
L 2450 531 
L 3481 531 
L 3481 0 
L 794 0 
L 794 531 
z
" transform="scale(0.015625)"/>
       </defs>
       <use xlink:href="#DejaVuSans-31"/>
       <use xlink:href="#DejaVuSans-30" x="63.623047"/>
      </g>
     </g>
    </g>
    <g id="xtick_4">
     <g id="line2d_7">
      <path d="M 359.112238 313.277969 
L 359.112238 23.077969 
" clip-path="url(#p6294f2d268)" style="fill: none; stroke: #b0b0b0; stroke-opacity: 0.25; stroke-width: 0.8; stroke-linecap: square"/>
     </g>
     <g id="line2d_8">
      <g>
       <use xlink:href="#mb8a1b89b30" x="359.112238" y="313.277969" style="stroke: #000000; stroke-width: 0.8"/>
      </g>
     </g>
     <g id="text_4">
      <!-- 15 -->
      <g transform="translate(352.749738 327.876406) scale(0.1 -0.1)">
       <use xlink:href="#DejaVuSans-31"/>
       <use xlink:href="#DejaVuSans-35" x="63.623047"/>
      </g>
     </g>
    </g>
    <g id="xtick_5">
     <g id="line2d_9">
      <path d="M 455.699229 313.277969 
L 455.699229 23.077969 
" clip-path="url(#p6294f2d268)" style="fill: none; stroke: #b0b0b0; stroke-opacity: 0.25; stroke-width: 0.8; stroke-linecap: square"/>
     </g>
     <g id="line2d_10">
      <g>
       <use xlink:href="#mb8a1b89b30" x="455.699229" y="313.277969" style="stroke: #000000; stroke-width: 0.8"/>
      </g>
     </g>
     <g id="text_5">
      <!-- 20 -->
      <g transform="translate(449.336729 327.876406) scale(0.1 -0.1)">
       <defs>
        <path id="DejaVuSans-32" d="M 1228 531 
L 3431 531 
L 3431 0 
L 469 0 
L 469 531 
Q 828 903 1448 1529 
Q 2069 2156 2228 2338 
Q 2531 2678 2651 2914 
Q 2772 3150 2772 3378 
Q 2772 3750 2511 3984 
Q 2250 4219 1831 4219 
Q 1534 4219 1204 4116 
Q 875 4013 500 3803 
L 500 4441 
Q 881 4594 1212 4672 
Q 1544 4750 1819 4750 
Q 2544 4750 2975 4387 
Q 3406 4025 3406 3419 
Q 3406 3131 3298 2873 
Q 3191 2616 2906 2266 
Q 2828 2175 2409 1742 
Q 1991 1309 1228 531 
z
" transform="scale(0.015625)"/>
       </defs>
       <use xlink:href="#DejaVuSans-32"/>
       <use xlink:href="#DejaVuSans-30" x="63.623047"/>
      </g>
     </g>
    </g>
    <g id="xtick_6">
     <g id="line2d_11">
      <path d="M 552.28622 313.277969 
L 552.28622 23.077969 
" clip-path="url(#p6294f2d268)" style="fill: none; stroke: #b0b0b0; stroke-opacity: 0.25; stroke-width: 0.8; stroke-linecap: square"/>
     </g>
     <g id="line2d_12">
      <g>
       <use xlink:href="#mb8a1b89b30" x="552.28622" y="313.277969" style="stroke: #000000; stroke-width: 0.8"/>
      </g>
     </g>
     <g id="text_6">
      <!-- 25 -->
      <g transform="translate(545.92372 327.876406) scale(0.1 -0.1)">
       <use xlink:href="#DejaVuSans-32"/>
       <use xlink:href="#DejaVuSans-35" x="63.623047"/>
      </g>
     </g>
    </g>
    <g id="xtick_7">
     <g id="line2d_13">
      <path d="M 648.87321 313.277969 
L 648.87321 23.077969 
" clip-path="url(#p6294f2d268)" style="fill: none; stroke: #b0b0b0; stroke-opacity: 0.25; stroke-width: 0.8; stroke-linecap: square"/>
     </g>
     <g id="line2d_14">
      <g>
       <use xlink:href="#mb8a1b89b30" x="648.87321" y="313.277969" style="stroke: #000000; stroke-width: 0.8"/>
      </g>
     </g>
     <g id="text_7">
      <!-- 30 -->
      <g transform="translate(642.51071 327.876406) scale(0.1 -0.1)">
       <defs>
        <path id="DejaVuSans-33" d="M 2597 2516 
Q 3050 2419 3304 2112 
Q 3559 1806 3559 1356 
Q 3559 666 3084 287 
Q 2609 -91 1734 -91 
Q 1441 -91 1130 -33 
Q 819 25 488 141 
L 488 750 
Q 750 597 1062 519 
Q 1375 441 1716 441 
Q 2309 441 2620 675 
Q 2931 909 2931 1356 
Q 2931 1769 2642 2001 
Q 2353 2234 1838 2234 
L 1294 2234 
L 1294 2753 
L 1863 2753 
Q 2328 2753 2575 2939 
Q 2822 3125 2822 3475 
Q 2822 3834 2567 4026 
Q 2313 4219 1838 4219 
Q 1578 4219 1281 4162 
Q 984 4106 628 3988 
L 628 4550 
Q 988 4650 1302 4700 
Q 1616 4750 1894 4750 
Q 2613 4750 3031 4423 
Q 3450 4097 3450 3541 
Q 3450 3153 3228 2886 
Q 3006 2619 2597 2516 
z
" transform="scale(0.015625)"/>
       </defs>
       <use xlink:href="#DejaVuSans-33"/>
       <use xlink:href="#DejaVuSans-30" x="63.623047"/>
      </g>
     </g>
    </g>
    <g id="text_8">
     <!-- Ночей -->
     <g transform="translate(351.061797 342.314375) scale(0.11 -0.11)">
      <defs>
       <path id="DejaVuSans-41d" d="M 628 4666 
L 1259 4666 
L 1259 2753 
L 3553 2753 
L 3553 4666 
L 4184 4666 
L 4184 0 
L 3553 0 
L 3553 2222 
L 1259 2222 
L 1259 0 
L 628 0 
L 628 4666 
z
" transform="scale(0.015625)"/>
       <path id="DejaVuSans-43e" d="M 1959 3097 
Q 1497 3097 1228 2736 
Q 959 2375 959 1747 
Q 959 1119 1226 758 
Q 1494 397 1959 397 
Q 2419 397 2687 759 
Q 2956 1122 2956 1747 
Q 2956 2369 2687 2733 
Q 2419 3097 1959 3097 
z
M 1959 3584 
Q 2709 3584 3137 3096 
Q 3566 2609 3566 1747 
Q 3566 888 3137 398 
Q 2709 -91 1959 -91 
Q 1206 -91 779 398 
Q 353 888 353 1747 
Q 353 2609 779 3096 
Q 1206 3584 1959 3584 
z
" transform="scale(0.015625)"/>
       <path id="DejaVuSans-447" d="M 2625 0 
L 2625 1472 
L 1553 1472 
Q 1075 1472 756 1769 
Q 469 2038 469 2613 
L 469 3500 
L 1044 3500 
L 1044 2666 
Q 1044 2300 1206 2116 
Q 1372 1931 1697 1931 
L 2625 1931 
L 2625 3500 
L 3200 3500 
L 3200 0 
L 2625 0 
z
" transform="scale(0.015625)"/>
       <path id="DejaVuSans-435" d="M 3597 1894 
L 3597 1613 
L 953 1613 
Q 991 1019 1311 708 
Q 1631 397 2203 397 
Q 2534 397 2845 478 
Q 3156 559 3463 722 
L 3463 178 
Q 3153 47 2828 -22 
Q 2503 -91 2169 -91 
Q 1331 -91 842 396 
Q 353 884 353 1716 
Q 353 2575 817 3079 
Q 1281 3584 2069 3584 
Q 2775 3584 3186 3129 
Q 3597 2675 3597 1894 
z
M 3022 2063 
Q 3016 2534 2758 2815 
Q 2500 3097 2075 3097 
Q 1594 3097 1305 2825 
Q 1016 2553 972 2059 
L 3022 2063 
z
" transform="scale(0.015625)"/>
       <path id="DejaVuSans-439" d="M 3578 3500 
L 3578 0 
L 3006 0 
L 3006 2809 
L 1319 0 
L 581 0 
L 581 3500 
L 1153 3500 
L 1153 697 
L 2838 3500 
L 3578 3500 
z
M 1102 4833 
L 1471 4833 
Q 1505 4599 1656 4481 
Q 1808 4364 2080 4364 
Q 2349 4364 2499 4480 
Q 2649 4596 2689 4833 
L 3058 4833 
Q 3027 4386 2780 4161 
Q 2533 3936 2080 3936 
Q 1627 3936 1380 4161 
Q 1133 4386 1102 4833 
z
" transform="scale(0.015625)"/>
      </defs>
      <use xlink:href="#DejaVuSans-41d"/>
      <use xlink:href="#DejaVuSans-43e" x="75.195312"/>
      <use xlink:href="#DejaVuSans-447" x="136.376953"/>
      <use xlink:href="#DejaVuSans-435" x="195.458984"/>
      <use xlink:href="#DejaVuSans-439" x="256.982422"/>
     </g>
    </g>
   </g>
   <g id="matplotlib.axis_2">
    <g id="ytick_1">
     <g id="line2d_15">
      <path d="M 60.658438 313.277969 
L 676.883438 313.277969 
" clip-path="url(#p6294f2d268)" style="fill: none; stroke: #b0b0b0; stroke-opacity: 0.25; stroke-width: 0.8; stroke-linecap: square"/>
     </g>
     <g id="line2d_16">
      <defs>
       <path id="mfaa7536f9f" d="M 0 0 
L -3.5 0 
" style="stroke: #000000; stroke-width: 0.8"/>
      </defs>
      <g>
       <use xlink:href="#mfaa7536f9f" x="60.658438" y="313.277969" style="stroke: #000000; stroke-width: 0.8"/>
      </g>
     </g>
     <g id="text_9">
      <!-- 0 -->
      <g transform="translate(47.295938 317.077187) scale(0.1 -0.1)">
       <use xlink:href="#DejaVuSans-30"/>
      </g>
     </g>
    </g>
    <g id="ytick_2">
     <g id="line2d_17">
      <path d="M 60.658438 251.504438 
L 676.883438 251.504438 
" clip-path="url(#p6294f2d268)" style="fill: none; stroke: #b0b0b0; stroke-opacity: 0.25; stroke-width: 0.8; stroke-linecap: square"/>
     </g>
     <g id="line2d_18">
      <g>
       <use xlink:href="#mfaa7536f9f" x="60.658438" y="251.504438" style="stroke: #000000; stroke-width: 0.8"/>
      </g>
     </g>
     <g id="text_10">
      <!-- 20000 -->
      <g transform="translate(21.845938 255.303657) scale(0.1 -0.1)">
       <use xlink:href="#DejaVuSans-32"/>
       <use xlink:href="#DejaVuSans-30" x="63.623047"/>
       <use xlink:href="#DejaVuSans-30" x="127.246094"/>
       <use xlink:href="#DejaVuSans-30" x="190.869141"/>
       <use xlink:href="#DejaVuSans-30" x="254.492188"/>
      </g>
     </g>
    </g>
    <g id="ytick_3">
     <g id="line2d_19">
      <path d="M 60.658438 189.730908 
L 676.883438 189.730908 
" clip-path="url(#p6294f2d268)" style="fill: none; stroke: #b0b0b0; stroke-opacity: 0.25; stroke-width: 0.8; stroke-linecap: square"/>
     </g>
     <g id="line2d_20">
      <g>
       <use xlink:href="#mfaa7536f9f" x="60.658438" y="189.730908" style="stroke: #000000; stroke-width: 0.8"/>
      </g>
     </g>
     <g id="text_11">
      <!-- 40000 -->
      <g transform="translate(21.845938 193.530127) scale(0.1 -0.1)">
       <defs>
        <path id="DejaVuSans-34" d="M 2419 4116 
L 825 1625 
L 2419 1625 
L 2419 4116 
z
M 2253 4666 
L 3047 4666 
L 3047 1625 
L 3713 1625 
L 3713 1100 
L 3047 1100 
L 3047 0 
L 2419 0 
L 2419 1100 
L 313 1100 
L 313 1709 
L 2253 4666 
z
" transform="scale(0.015625)"/>
       </defs>
       <use xlink:href="#DejaVuSans-34"/>
       <use xlink:href="#DejaVuSans-30" x="63.623047"/>
       <use xlink:href="#DejaVuSans-30" x="127.246094"/>
       <use xlink:href="#DejaVuSans-30" x="190.869141"/>
       <use xlink:href="#DejaVuSans-30" x="254.492188"/>
      </g>
     </g>
    </g>
    <g id="ytick_4">
     <g id="line2d_21">
      <path d="M 60.658438 127.957378 
L 676.883438 127.957378 
" clip-path="url(#p6294f2d268)" style="fill: none; stroke: #b0b0b0; stroke-opacity: 0.25; stroke-width: 0.8; stroke-linecap: square"/>
     </g>
     <g id="line2d_22">
      <g>
       <use xlink:href="#mfaa7536f9f" x="60.658438" y="127.957378" style="stroke: #000000; stroke-width: 0.8"/>
      </g>
     </g>
     <g id="text_12">
      <!-- 60000 -->
      <g transform="translate(21.845938 131.756596) scale(0.1 -0.1)">
       <defs>
        <path id="DejaVuSans-36" d="M 2113 2584 
Q 1688 2584 1439 2293 
Q 1191 2003 1191 1497 
Q 1191 994 1439 701 
Q 1688 409 2113 409 
Q 2538 409 2786 701 
Q 3034 994 3034 1497 
Q 3034 2003 2786 2293 
Q 2538 2584 2113 2584 
z
M 3366 4563 
L 3366 3988 
Q 3128 4100 2886 4159 
Q 2644 4219 2406 4219 
Q 1781 4219 1451 3797 
Q 1122 3375 1075 2522 
Q 1259 2794 1537 2939 
Q 1816 3084 2150 3084 
Q 2853 3084 3261 2657 
Q 3669 2231 3669 1497 
Q 3669 778 3244 343 
Q 2819 -91 2113 -91 
Q 1303 -91 875 529 
Q 447 1150 447 2328 
Q 447 3434 972 4092 
Q 1497 4750 2381 4750 
Q 2619 4750 2861 4703 
Q 3103 4656 3366 4563 
z
" transform="scale(0.015625)"/>
       </defs>
       <use xlink:href="#DejaVuSans-36"/>
       <use xlink:href="#DejaVuSans-30" x="63.623047"/>
       <use xlink:href="#DejaVuSans-30" x="127.246094"/>
       <use xlink:href="#DejaVuSans-30" x="190.869141"/>
       <use xlink:href="#DejaVuSans-30" x="254.492188"/>
      </g>
     </g>
    </g>
    <g id="ytick_5">
     <g id="line2d_23">
      <path d="M 60.658438 66.183847 
L 676.883438 66.183847 
" clip-path="url(#p6294f2d268)" style="fill: none; stroke: #b0b0b0; stroke-opacity: 0.25; stroke-width: 0.8; stroke-linecap: square"/>
     </g>
     <g id="line2d_24">
      <g>
       <use xlink:href="#mfaa7536f9f" x="60.658438" y="66.183847" style="stroke: #000000; stroke-width: 0.8"/>
      </g>
     </g>
     <g id="text_13">
      <!-- 80000 -->
      <g transform="translate(21.845938 69.983066) scale(0.1 -0.1)">
       <defs>
        <path id="DejaVuSans-38" d="M 2034 2216 
Q 1584 2216 1326 1975 
Q 1069 1734 1069 1313 
Q 1069 891 1326 650 
Q 1584 409 2034 409 
Q 2484 409 2743 651 
Q 3003 894 3003 1313 
Q 3003 1734 2745 1975 
Q 2488 2216 2034 2216 
z
M 1403 2484 
Q 997 2584 770 2862 
Q 544 3141 544 3541 
Q 544 4100 942 4425 
Q 1341 4750 2034 4750 
Q 2731 4750 3128 4425 
Q 3525 4100 3525 3541 
Q 3525 3141 3298 2862 
Q 3072 2584 2669 2484 
Q 3125 2378 3379 2068 
Q 3634 1759 3634 1313 
Q 3634 634 3220 271 
Q 2806 -91 2034 -91 
Q 1263 -91 848 271 
Q 434 634 434 1313 
Q 434 1759 690 2068 
Q 947 2378 1403 2484 
z
M 1172 3481 
Q 1172 3119 1398 2916 
Q 1625 2713 2034 2713 
Q 2441 2713 2670 2916 
Q 2900 3119 2900 3481 
Q 2900 3844 2670 4047 
Q 2441 4250 2034 4250 
Q 1625 4250 1398 4047 
Q 1172 3844 1172 3481 
z
" transform="scale(0.015625)"/>
       </defs>
       <use xlink:href="#DejaVuSans-38"/>
       <use xlink:href="#DejaVuSans-30" x="63.623047"/>
       <use xlink:href="#DejaVuSans-30" x="127.246094"/>
       <use xlink:href="#DejaVuSans-30" x="190.869141"/>
       <use xlink:href="#DejaVuSans-30" x="254.492188"/>
      </g>
     </g>
    </g>
    <g id="text_14">
     <!-- Частота -->
     <g transform="translate(15.558281 191.486797) rotate(-90) scale(0.11 -0.11)">
      <defs>
       <path id="DejaVuSans-427" d="M 3125 0 
L 3125 1913 
L 1822 1913 
Q 1241 1913 894 2277 
Q 547 2641 547 3384 
L 547 4666 
L 1175 4666 
L 1175 3434 
Q 1175 2938 1369 2691 
Q 1563 2444 1950 2444 
L 3125 2444 
L 3125 4666 
L 3759 4666 
L 3759 0 
L 3125 0 
z
" transform="scale(0.015625)"/>
       <path id="DejaVuSans-430" d="M 2194 1759 
Q 1497 1759 1228 1600 
Q 959 1441 959 1056 
Q 959 750 1161 570 
Q 1363 391 1709 391 
Q 2188 391 2477 730 
Q 2766 1069 2766 1631 
L 2766 1759 
L 2194 1759 
z
M 3341 1997 
L 3341 0 
L 2766 0 
L 2766 531 
Q 2569 213 2275 61 
Q 1981 -91 1556 -91 
Q 1019 -91 701 211 
Q 384 513 384 1019 
Q 384 1609 779 1909 
Q 1175 2209 1959 2209 
L 2766 2209 
L 2766 2266 
Q 2766 2663 2505 2880 
Q 2244 3097 1772 3097 
Q 1472 3097 1187 3025 
Q 903 2953 641 2809 
L 641 3341 
Q 956 3463 1253 3523 
Q 1550 3584 1831 3584 
Q 2591 3584 2966 3190 
Q 3341 2797 3341 1997 
z
" transform="scale(0.015625)"/>
       <path id="DejaVuSans-441" d="M 3122 3366 
L 3122 2828 
Q 2878 2963 2633 3030 
Q 2388 3097 2138 3097 
Q 1578 3097 1268 2742 
Q 959 2388 959 1747 
Q 959 1106 1268 751 
Q 1578 397 2138 397 
Q 2388 397 2633 464 
Q 2878 531 3122 666 
L 3122 134 
Q 2881 22 2623 -34 
Q 2366 -91 2075 -91 
Q 1284 -91 818 406 
Q 353 903 353 1747 
Q 353 2603 823 3093 
Q 1294 3584 2113 3584 
Q 2378 3584 2631 3529 
Q 2884 3475 3122 3366 
z
" transform="scale(0.015625)"/>
       <path id="DejaVuSans-442" d="M 188 3500 
L 3541 3500 
L 3541 3041 
L 2147 3041 
L 2147 0 
L 1581 0 
L 1581 3041 
L 188 3041 
L 188 3500 
z
" transform="scale(0.015625)"/>
      </defs>
      <use xlink:href="#DejaVuSans-427"/>
      <use xlink:href="#DejaVuSans-430" x="68.554688"/>
      <use xlink:href="#DejaVuSans-441" x="129.833984"/>
      <use xlink:href="#DejaVuSans-442" x="184.814453"/>
      <use xlink:href="#DejaVuSans-43e" x="243.066406"/>
      <use xlink:href="#DejaVuSans-442" x="304.248047"/>
      <use xlink:href="#DejaVuSans-430" x="362.5"/>
     </g>
    </g>
   </g>
   <g id="line2d_25">
    <path d="M 88.668665 313.277969 
L 88.668665 23.077969 
" clip-path="url(#p6294f2d268)" style="fill: none; stroke-dasharray: 3.7,1.6; stroke-dashoffset: 0; stroke: #d62728"/>
   </g>
   <g id="line2d_26">
    <path d="M 146.620859 313.277969 
L 146.620859 23.077969 
" clip-path="url(#p6294f2d268)" style="fill: none; stroke-dasharray: 3.7,1.6; stroke-dashoffset: 0; stroke: #d62728"/>
   </g>
   <g id="patch_103">
    <path d="M 60.658438 313.277969 
L 60.658438 23.077969 
" style="fill: none; stroke: #000000; stroke-width: 0.8; stroke-linejoin: miter; stroke-linecap: square"/>
   </g>
   <g id="patch_104">
    <path d="M 676.883438 313.277969 
L 676.883438 23.077969 
" style="fill: none; stroke: #000000; stroke-width: 0.8; stroke-linejoin: miter; stroke-linecap: square"/>
   </g>
   <g id="patch_105">
    <path d="M 60.658438 313.277969 
L 676.883437 313.277969 
" style="fill: none; stroke: #000000; stroke-width: 0.8; stroke-linejoin: miter; stroke-linecap: square"/>
   </g>
   <g id="patch_106">
    <path d="M 60.658438 23.077969 
L 676.883437 23.077969 
" style="fill: none; stroke: #000000; stroke-width: 0.8; stroke-linejoin: miter; stroke-linecap: square"/>
   </g>
   <g id="text_15">
    <!-- P50=1 -->
    <g style="fill: #d62728" transform="translate(86.796946 67.735156) rotate(-90) scale(0.09 -0.09)">
     <defs>
      <path id="DejaVuSans-50" d="M 1259 4147 
L 1259 2394 
L 2053 2394 
Q 2494 2394 2734 2622 
Q 2975 2850 2975 3272 
Q 2975 3691 2734 3919 
Q 2494 4147 2053 4147 
L 1259 4147 
z
M 628 4666 
L 2053 4666 
Q 2838 4666 3239 4311 
Q 3641 3956 3641 3272 
Q 3641 2581 3239 2228 
Q 2838 1875 2053 1875 
L 1259 1875 
L 1259 0 
L 628 0 
L 628 4666 
z
" transform="scale(0.015625)"/>
      <path id="DejaVuSans-3d" d="M 678 2906 
L 4684 2906 
L 4684 2381 
L 678 2381 
L 678 2906 
z
M 678 1631 
L 4684 1631 
L 4684 1100 
L 678 1100 
L 678 1631 
z
" transform="scale(0.015625)"/>
     </defs>
     <use xlink:href="#DejaVuSans-50"/>
     <use xlink:href="#DejaVuSans-35" x="60.302734"/>
     <use xlink:href="#DejaVuSans-30" x="123.925781"/>
     <use xlink:href="#DejaVuSans-3d" x="187.548828"/>
     <use xlink:href="#DejaVuSans-31" x="271.337891"/>
    </g>
   </g>
   <g id="text_16">
    <!-- P90=4 -->
    <g style="fill: #d62728" transform="translate(144.74914 67.735156) rotate(-90) scale(0.09 -0.09)">
     <defs>
      <path id="DejaVuSans-39" d="M 703 97 
L 703 672 
Q 941 559 1184 500 
Q 1428 441 1663 441 
Q 2288 441 2617 861 
Q 2947 1281 2994 2138 
Q 2813 1869 2534 1725 
Q 2256 1581 1919 1581 
Q 1219 1581 811 2004 
Q 403 2428 403 3163 
Q 403 3881 828 4315 
Q 1253 4750 1959 4750 
Q 2769 4750 3195 4129 
Q 3622 3509 3622 2328 
Q 3622 1225 3098 567 
Q 2575 -91 1691 -91 
Q 1453 -91 1209 -44 
Q 966 3 703 97 
z
M 1959 2075 
Q 2384 2075 2632 2365 
Q 2881 2656 2881 3163 
Q 2881 3666 2632 3958 
Q 2384 4250 1959 4250 
Q 1534 4250 1286 3958 
Q 1038 3666 1038 3163 
Q 1038 2656 1286 2365 
Q 1534 2075 1959 2075 
z
" transform="scale(0.015625)"/>
     </defs>
     <use xlink:href="#DejaVuSans-50"/>
     <use xlink:href="#DejaVuSans-39" x="60.302734"/>
     <use xlink:href="#DejaVuSans-30" x="123.925781"/>
     <use xlink:href="#DejaVuSans-3d" x="187.548828"/>
     <use xlink:href="#DejaVuSans-34" x="271.337891"/>
    </g>
   </g>
   <g id="text_17">
    <!-- Распределение длительности проживания (отели) -->
    <g transform="translate(176.151562 17.077969) scale(0.13 -0.13)">
     <defs>
      <path id="DejaVuSans-Bold-420" d="M 588 4666 
L 2584 4666 
Q 3475 4666 3951 4270 
Q 4428 3875 4428 3144 
Q 4428 2409 3951 2014 
Q 3475 1619 2584 1619 
L 1791 1619 
L 1791 0 
L 588 0 
L 588 4666 
z
M 1791 3794 
L 1791 2491 
L 2456 2491 
Q 2806 2491 2997 2661 
Q 3188 2831 3188 3144 
Q 3188 3456 2997 3625 
Q 2806 3794 2456 3794 
L 1791 3794 
z
" transform="scale(0.015625)"/>
      <path id="DejaVuSans-Bold-430" d="M 2106 1575 
Q 1756 1575 1579 1456 
Q 1403 1338 1403 1106 
Q 1403 894 1545 773 
Q 1688 653 1941 653 
Q 2256 653 2472 879 
Q 2688 1106 2688 1447 
L 2688 1575 
L 2106 1575 
z
M 3816 1997 
L 3816 0 
L 2688 0 
L 2688 519 
Q 2463 200 2181 54 
Q 1900 -91 1497 -91 
Q 953 -91 614 226 
Q 275 544 275 1050 
Q 275 1666 698 1953 
Q 1122 2241 2028 2241 
L 2688 2241 
L 2688 2328 
Q 2688 2594 2478 2717 
Q 2269 2841 1825 2841 
Q 1466 2841 1156 2769 
Q 847 2697 581 2553 
L 581 3406 
Q 941 3494 1303 3539 
Q 1666 3584 2028 3584 
Q 2975 3584 3395 3211 
Q 3816 2838 3816 1997 
z
" transform="scale(0.015625)"/>
      <path id="DejaVuSans-Bold-441" d="M 3366 3391 
L 3366 2478 
Q 3138 2634 2908 2709 
Q 2678 2784 2431 2784 
Q 1963 2784 1702 2511 
Q 1441 2238 1441 1747 
Q 1441 1256 1702 982 
Q 1963 709 2431 709 
Q 2694 709 2930 787 
Q 3166 866 3366 1019 
L 3366 103 
Q 3103 6 2833 -42 
Q 2563 -91 2291 -91 
Q 1344 -91 809 395 
Q 275 881 275 1747 
Q 275 2613 809 3098 
Q 1344 3584 2291 3584 
Q 2566 3584 2833 3536 
Q 3100 3488 3366 3391 
z
" transform="scale(0.015625)"/>
      <path id="DejaVuSans-Bold-43f" d="M 3884 3500 
L 3884 0 
L 2766 0 
L 2766 2700 
L 1656 2700 
L 1656 0 
L 538 0 
L 538 3500 
L 3884 3500 
z
" transform="scale(0.015625)"/>
      <path id="DejaVuSans-Bold-440" d="M 1656 506 
L 1656 -1331 
L 538 -1331 
L 538 3500 
L 1656 3500 
L 1656 2988 
Q 1888 3294 2169 3439 
Q 2450 3584 2816 3584 
Q 3463 3584 3878 3070 
Q 4294 2556 4294 1747 
Q 4294 938 3878 423 
Q 3463 -91 2816 -91 
Q 2450 -91 2169 54 
Q 1888 200 1656 506 
z
M 2400 2772 
Q 2041 2772 1848 2508 
Q 1656 2244 1656 1747 
Q 1656 1250 1848 986 
Q 2041 722 2400 722 
Q 2759 722 2948 984 
Q 3138 1247 3138 1747 
Q 3138 2247 2948 2509 
Q 2759 2772 2400 2772 
z
" transform="scale(0.015625)"/>
      <path id="DejaVuSans-Bold-435" d="M 4031 1759 
L 4031 1441 
L 1416 1441 
Q 1456 1047 1700 850 
Q 1944 653 2381 653 
Q 2734 653 3104 758 
Q 3475 863 3866 1075 
L 3866 213 
Q 3469 63 3072 -14 
Q 2675 -91 2278 -91 
Q 1328 -91 801 392 
Q 275 875 275 1747 
Q 275 2603 792 3093 
Q 1309 3584 2216 3584 
Q 3041 3584 3536 3087 
Q 4031 2591 4031 1759 
z
M 2881 2131 
Q 2881 2450 2695 2645 
Q 2509 2841 2209 2841 
Q 1884 2841 1681 2658 
Q 1478 2475 1428 2131 
L 2881 2131 
z
" transform="scale(0.015625)"/>
      <path id="DejaVuSans-Bold-434" d="M 547 800 
Q 903 919 1053 1314 
Q 1203 1709 1203 2838 
L 1203 3500 
L 4228 3500 
L 4228 800 
L 4809 800 
L 4809 -884 
L 4009 -884 
L 4009 0 
L 1159 0 
L 1159 -884 
L 359 -884 
L 359 800 
L 547 800 
z
M 3109 2700 
L 2322 2700 
L 2322 2603 
Q 2322 1456 2063 800 
L 3109 800 
L 3109 2700 
z
" transform="scale(0.015625)"/>
      <path id="DejaVuSans-Bold-43b" d="M 353 0 
L 353 800 
Q 906 913 1031 1278 
Q 1125 1556 1125 2928 
L 1125 3500 
L 4150 3500 
L 4150 0 
L 3031 0 
L 3031 2700 
L 2244 2700 
L 2244 2584 
Q 2244 1213 2028 813 
Q 1591 0 353 0 
z
" transform="scale(0.015625)"/>
      <path id="DejaVuSans-Bold-43d" d="M 538 3500 
L 1656 3500 
L 1656 2169 
L 2766 2169 
L 2766 3500 
L 3884 3500 
L 3884 0 
L 2766 0 
L 2766 1478 
L 1656 1478 
L 1656 0 
L 538 0 
L 538 3500 
z
" transform="scale(0.015625)"/>
      <path id="DejaVuSans-Bold-438" d="M 3947 3500 
L 3947 0 
L 2828 0 
L 2828 1863 
L 1700 0 
L 538 0 
L 538 3500 
L 1656 3500 
L 1656 1638 
L 2784 3500 
L 3947 3500 
z
" transform="scale(0.015625)"/>
      <path id="DejaVuSans-Bold-20" transform="scale(0.015625)"/>
      <path id="DejaVuSans-Bold-442" d="M 25 3500 
L 3681 3500 
L 3681 2809 
L 2413 2809 
L 2413 0 
L 1297 0 
L 1297 2809 
L 25 2809 
L 25 3500 
z
" transform="scale(0.015625)"/>
      <path id="DejaVuSans-Bold-44c" d="M 2719 1094 
Q 2719 1291 2594 1388 
Q 2472 1481 2222 1481 
L 1656 1481 
L 1656 700 
L 2222 700 
Q 2469 700 2594 800 
Q 2719 897 2719 1094 
z
M 538 3500 
L 1656 3500 
L 1656 2172 
L 2291 2172 
Q 3000 2172 3381 1913 
Q 3766 1650 3766 1081 
Q 3766 513 3381 256 
Q 3000 0 2291 0 
L 538 0 
L 538 3500 
z
" transform="scale(0.015625)"/>
      <path id="DejaVuSans-Bold-43e" d="M 2203 2784 
Q 1831 2784 1636 2517 
Q 1441 2250 1441 1747 
Q 1441 1244 1636 976 
Q 1831 709 2203 709 
Q 2569 709 2762 976 
Q 2956 1244 2956 1747 
Q 2956 2250 2762 2517 
Q 2569 2784 2203 2784 
z
M 2203 3584 
Q 3106 3584 3614 3096 
Q 4122 2609 4122 1747 
Q 4122 884 3614 396 
Q 3106 -91 2203 -91 
Q 1297 -91 786 396 
Q 275 884 275 1747 
Q 275 2609 786 3096 
Q 1297 3584 2203 3584 
z
" transform="scale(0.015625)"/>
      <path id="DejaVuSans-Bold-436" d="M 94 0 
L 1678 2078 
L 216 3500 
L 1441 3500 
L 2625 2347 
L 2625 3500 
L 3744 3500 
L 3744 2347 
L 4928 3500 
L 6153 3500 
L 4691 2078 
L 6275 0 
L 5119 0 
L 4025 1431 
L 3744 1159 
L 3744 0 
L 2625 0 
L 2625 1159 
L 2344 1431 
L 1250 0 
L 94 0 
z
" transform="scale(0.015625)"/>
      <path id="DejaVuSans-Bold-432" d="M 2184 2181 
Q 2378 2181 2478 2261 
Q 2578 2341 2578 2497 
Q 2578 2653 2478 2731 
Q 2378 2809 2184 2809 
L 1656 2809 
L 1656 2181 
L 2184 2181 
z
M 2222 700 
Q 2469 700 2594 798 
Q 2719 897 2719 1094 
Q 2719 1288 2594 1384 
Q 2469 1481 2222 1481 
L 1656 1481 
L 1656 700 
L 2222 700 
z
M 538 3500 
L 2141 3500 
Q 2919 3500 3267 3279 
Q 3616 3059 3616 2575 
Q 3616 2319 3487 2139 
Q 3359 1959 3119 1872 
Q 3428 1788 3598 1561 
Q 3769 1334 3769 1003 
Q 3769 497 3403 248 
Q 3038 0 2294 0 
L 538 0 
L 538 3500 
z
" transform="scale(0.015625)"/>
      <path id="DejaVuSans-Bold-44f" d="M 1528 2394 
Q 1528 2169 1651 2069 
Q 1775 1969 2059 1969 
L 2463 1969 
L 2463 2816 
L 2059 2816 
Q 1775 2816 1651 2719 
Q 1528 2622 1528 2394 
z
M 197 0 
L 1113 1497 
Q 847 1650 650 1917 
Q 453 2184 453 2516 
Q 453 3013 789 3256 
Q 1125 3500 1878 3500 
L 3581 3500 
L 3581 0 
L 2463 0 
L 2463 1278 
L 2069 1278 
L 1288 0 
L 197 0 
z
" transform="scale(0.015625)"/>
      <path id="DejaVuSans-Bold-28" d="M 2413 -844 
L 1484 -844 
Q 1006 -72 778 623 
Q 550 1319 550 2003 
Q 550 2688 779 3389 
Q 1009 4091 1484 4856 
L 2413 4856 
Q 2013 4116 1813 3408 
Q 1613 2700 1613 2009 
Q 1613 1319 1811 609 
Q 2009 -100 2413 -844 
z
" transform="scale(0.015625)"/>
      <path id="DejaVuSans-Bold-29" d="M 513 -844 
Q 913 -100 1113 609 
Q 1313 1319 1313 2009 
Q 1313 2700 1113 3408 
Q 913 4116 513 4856 
L 1441 4856 
Q 1916 4091 2145 3389 
Q 2375 2688 2375 2003 
Q 2375 1319 2147 623 
Q 1919 -72 1441 -844 
L 513 -844 
z
" transform="scale(0.015625)"/>
     </defs>
     <use xlink:href="#DejaVuSans-Bold-420"/>
     <use xlink:href="#DejaVuSans-Bold-430" x="73.291016"/>
     <use xlink:href="#DejaVuSans-Bold-441" x="140.771484"/>
     <use xlink:href="#DejaVuSans-Bold-43f" x="200.048828"/>
     <use xlink:href="#DejaVuSans-Bold-440" x="269.140625"/>
     <use xlink:href="#DejaVuSans-Bold-435" x="340.722656"/>
     <use xlink:href="#DejaVuSans-Bold-434" x="408.544922"/>
     <use xlink:href="#DejaVuSans-Bold-435" x="489.306641"/>
     <use xlink:href="#DejaVuSans-Bold-43b" x="557.128906"/>
     <use xlink:href="#DejaVuSans-Bold-435" x="630.371094"/>
     <use xlink:href="#DejaVuSans-Bold-43d" x="698.193359"/>
     <use xlink:href="#DejaVuSans-Bold-438" x="767.285156"/>
     <use xlink:href="#DejaVuSans-Bold-435" x="837.353516"/>
     <use xlink:href="#DejaVuSans-Bold-20" x="905.175781"/>
     <use xlink:href="#DejaVuSans-Bold-434" x="939.990234"/>
     <use xlink:href="#DejaVuSans-Bold-43b" x="1020.751953"/>
     <use xlink:href="#DejaVuSans-Bold-438" x="1093.994141"/>
     <use xlink:href="#DejaVuSans-Bold-442" x="1164.0625"/>
     <use xlink:href="#DejaVuSans-Bold-435" x="1222.021484"/>
     <use xlink:href="#DejaVuSans-Bold-43b" x="1289.84375"/>
     <use xlink:href="#DejaVuSans-Bold-44c" x="1363.085938"/>
     <use xlink:href="#DejaVuSans-Bold-43d" x="1426.318359"/>
     <use xlink:href="#DejaVuSans-Bold-43e" x="1495.410156"/>
     <use xlink:href="#DejaVuSans-Bold-441" x="1564.111328"/>
     <use xlink:href="#DejaVuSans-Bold-442" x="1623.388672"/>
     <use xlink:href="#DejaVuSans-Bold-438" x="1681.347656"/>
     <use xlink:href="#DejaVuSans-Bold-20" x="1751.416016"/>
     <use xlink:href="#DejaVuSans-Bold-43f" x="1786.230469"/>
     <use xlink:href="#DejaVuSans-Bold-440" x="1855.322266"/>
     <use xlink:href="#DejaVuSans-Bold-43e" x="1926.904297"/>
     <use xlink:href="#DejaVuSans-Bold-436" x="1995.605469"/>
     <use xlink:href="#DejaVuSans-Bold-438" x="2095.117188"/>
     <use xlink:href="#DejaVuSans-Bold-432" x="2165.185547"/>
     <use xlink:href="#DejaVuSans-Bold-430" x="2228.466797"/>
     <use xlink:href="#DejaVuSans-Bold-43d" x="2295.947266"/>
     <use xlink:href="#DejaVuSans-Bold-438" x="2365.039062"/>
     <use xlink:href="#DejaVuSans-Bold-44f" x="2435.107422"/>
     <use xlink:href="#DejaVuSans-Bold-20" x="2499.316406"/>
     <use xlink:href="#DejaVuSans-Bold-28" x="2534.130859"/>
     <use xlink:href="#DejaVuSans-Bold-43e" x="2579.833984"/>
     <use xlink:href="#DejaVuSans-Bold-442" x="2648.535156"/>
     <use xlink:href="#DejaVuSans-Bold-435" x="2706.494141"/>
     <use xlink:href="#DejaVuSans-Bold-43b" x="2774.316406"/>
     <use xlink:href="#DejaVuSans-Bold-438" x="2847.558594"/>
     <use xlink:href="#DejaVuSans-Bold-29" x="2917.626953"/>
    </g>
   </g>
  </g>
 </g>
 <defs>
  <clipPath id="p6294f2d268">
   <rect x="60.658438" y="23.077969" width="616.225" height="290.2"/>
  </clipPath>
 </defs>
</svg>
